Coordinates
version=1
nRows=13
nColumns=36
inDegrees=yes

Units are S.I. units (second, meters, Newtons, ...)
If the header above contains a line with 'inDegrees', this indicates whether rotational values are in degrees (yes) or radians (no).

endheader
time	pelvis_tilt	pelvis_list	pelvis_rotation	pelvis_tx	pelvis_ty	pelvis_tz	hip_flexion_r	hip_adduction_r	hip_rotation_r	knee_angle_r	knee_angle_r_beta	ankle_angle_r	subtalar_angle_r	mtp_angle_r	hip_flexion_l	hip_adduction_l	hip_rotation_l	knee_angle_l	knee_angle_l_beta	ankle_angle_l	subtalar_angle_l	mtp_angle_l	lumbar_extension	lumbar_bending	lumbar_rotation	arm_flex_r	arm_add_r	arm_rot_r	elbow_flex_r	pro_sup_r	arm_flex_l	arm_add_l	arm_rot_l	elbow_flex_l	pro_sup_l
      5.06250000	      1.39547214	     -2.03033859	      0.14620459	      0.37438239	      0.86680227	     -0.04743969	     22.05006401	      0.30226661	      3.92872250	     50.29244508	      0.87776876	     24.30751534	    -19.07013078	     -7.49999987	     22.39377912	     -8.22405409	     -3.28186173	     56.59133507	      0.98770512	     27.22176756	     -1.78131695	     -7.49999987	    -22.87367143	      3.84859710	     -1.53931742	     -1.67135387	     -4.44336842	    -34.84109417	     45.07250861	     81.19365617	      1.66935617	    -14.74105375	     19.74816841	     28.43186145	     78.32637281
      5.06666670	      1.60755098	     -2.08161482	      0.50202428	      0.37349796	      0.85878476	     -0.04319497	     23.45078037	      0.85233013	      4.26190106	     53.39615235	      0.93193867	     25.24121195	    -19.57985626	     -7.49999987	     23.73241666	     -8.60763187	     -2.67480014	     59.26058886	      1.03429239	     28.28620800	     -1.62582141	     -7.49999987	    -23.54567046	      3.71754164	     -1.51305371	     -1.46462427	     -3.68362839	    -32.79815568	     41.18783962	     81.57940918	      2.63842549	    -15.09649735	     19.74816447	     28.54511811	     78.53561160
      5.07083330	      1.94427471	     -2.21820500	      0.81001171	      0.37080055	      0.85015254	     -0.04122257	     24.70055632	      1.51484874	      4.48929122	     56.24923540	      0.98173436	     26.19329545	    -20.11228923	     -7.49999987	     24.94239748	     -9.08009444	     -2.19825778	     61.84489460	      1.07939704	     29.40816977	     -1.57090154	     -7.49999987	    -24.53620450	      3.70381737	     -0.99091978	     -1.23805993	     -3.02648971	    -31.31614277	     38.09294945	     81.38193688	      3.88610571	    -15.27737490	     19.57020954	     28.77284950	     78.22047797
      5.07500000	      1.93192324	     -2.21848893	      1.05763851	      0.36960910	      0.84495683	     -0.04087768	     25.94047387	      1.89932037	      4.57512327	     58.39655311	      1.01921212	     27.05805301	    -20.32034890	     -7.49999987	     26.19253257	     -9.19564312	     -1.53506611	     63.89877872	      1.11524408	     30.11334162	     -1.44608996	     -7.49999987	    -24.78493531	      3.59107467	     -1.33839758	     -0.51025535	     -2.70018887	    -27.94993743	     34.49716011	     81.65254147	      4.44526866	    -15.64551982	     19.66261527	     28.95404200	     78.33063879
      5.07916670	      2.21743947	     -2.09035413	      1.24801896	      0.36771170	      0.84233166	     -0.04162607	     26.64262171	      1.97207842	      4.57693154	     60.09655833	      1.04888281	     27.22895414	    -20.75784892	     -7.49999987	     26.86312367	     -9.01371219	     -1.02190020	     65.37793169	      1.14106017	     30.60785964	     -1.29059346	     -7.49999987	    -25.54967129	      3.47990187	     -1.18575677	      0.09624993	     -2.33046645	    -25.86119317	     32.05337077	     81.95097910	      5.43660407	    -15.66897083	     19.66389452	     28.99484309	     78.66678531
      5.08333330	      2.73548511	     -1.94663270	      1.36035774	      0.36615192	      0.83957385	     -0.04131149	     26.75641910	      2.02945395	      4.70386776	     61.26354173	      1.06925051	     27.53663224	    -20.84784735	     -7.49999987	     27.00215378	     -8.68200405	     -0.51247760	     66.61435815	      1.16263988	     30.88869842	     -1.55044830	     -7.49999987	    -26.73572371	      3.34346584	     -0.99387713	      0.96598746	     -2.32418129	    -23.30376163	     30.20191100	     81.84891188	      6.60164348	    -15.76319413	     19.78404166	     29.06192712	     78.82126967
      5.08750000	      2.97823865	     -1.78848352	      1.28032841	      0.36499273	      0.83239198	     -0.04118521	     27.32752540	      2.06267260	      4.94833983	     62.72428616	      1.09474531	     28.07010478	    -20.81761369	     -7.49999987	     27.37702031	     -8.44372091	     -0.29731007	     67.85529485	      1.18429831	     31.41531114	     -1.84621038	     -7.49999987	    -27.74793512	      3.10995229	     -0.66100973	      2.07557408	     -2.42242562	    -21.80587910	     28.92956873	     81.29806201	      7.71672516	    -15.55422958	     19.50486877	     29.00787888	     78.51918787
      5.09166670	      3.30681306	     -1.62343331	      1.04224185	      0.36191872	      0.82723471	     -0.04133806	     27.92061912	      1.98962516	      5.24919547	     64.23043262	      1.12103253	     28.57730806	    -20.77546109	     -7.49999987	     27.68485681	     -8.15321395	     -0.23000181	     69.00591175	      1.20438036	     32.02127131	     -1.93972251	     -7.49999987	    -29.01856122	      2.81066287	     -0.22325793	      3.28986157	     -2.58362194	    -20.81814657	     28.27906022	     80.62992984	      8.83468425	    -15.38341339	     19.42827611	     29.21511741	     77.94724689
      5.09583330	      3.29293997	     -1.53232332	      0.90413318	      0.36043517	      0.82152208	     -0.04228164	     29.00655856	      1.89614208	      5.43904471	     65.87667760	      1.14976492	     29.09319791	    -20.76355068	     -7.49999987	     28.45601616	     -7.91839459	     -0.12685429	     70.28219741	      1.22665575	     32.44003716	     -2.51497944	     -7.49999987	    -29.70255950	      2.65844675	     -0.05466818	      4.74042776	     -3.24110487	    -17.48154131	     26.94233931	     79.51512113	      9.81700932	    -15.26358459	     20.14468030	     28.83260559	     77.08788517
      5.10000000	      3.38571456	     -1.40587030	      0.73029201	      0.36191302	      0.81274049	     -0.04086687	     29.87845367	      1.94132186	      5.77242782	     67.66457845	      1.18096968	     29.93966502	    -20.66502966	     -7.49999987	     29.16842378	     -7.85779987	     -0.08098499	     71.95268627	      1.25581128	     33.17660055	     -2.76232463	     -7.49999987	    -30.52616009	      2.37512146	      0.21075418	      6.03702471	     -3.39693103	    -15.96032495	     26.20515084	     79.10920134	     10.75608982	    -15.08763685	     20.42109662	     28.82992302	     76.92148554
      5.10416670	      3.57378031	     -1.28760896	      0.55953562	      0.36016559	      0.80991118	     -0.04068753	     30.47420023	      1.96434619	      5.85728613	     69.05730453	      1.20527734	     30.25014191	    -21.15883940	     -7.49999987	     29.66610863	     -7.76581506	     -0.00686079	     73.15956519	      1.27687529	     33.75700634	     -2.78613314	     -7.49999987	    -31.48479418	      2.07064879	      0.57979435	      7.20147063	     -3.51054198	    -15.09019969	     25.78995295	     79.10891248	     11.71095877	    -14.90327861	     20.58255060	     28.92852941	     76.95283770
      5.10833330	      3.50590265	     -1.15086516	      0.50629438	      0.35761845	      0.80478990	     -0.04073537	     31.45877961	      1.91439706	      5.99000123	     70.56182108	      1.23153610	     31.01432043	    -20.81432710	     -7.49999987	     30.59203734	     -7.65988854	      0.20315728	     74.46384454	      1.29963926	     34.13816864	     -3.11274403	     -7.49999987	    -32.03221797	      1.84692539	      0.68424507	      8.40800501	     -3.72056849	    -12.89679122	     25.08145608	     78.61616570	     12.67555605	    -14.79882291	     21.51278941	     28.63856325	     76.61809784
      5.11250000	      3.56378280	     -1.06854799	      0.48215849	      0.35737194	      0.80191508	     -0.04298022	     32.03385821	      1.79974406	      6.11591378	     71.66499718	      1.25079016	     31.21754714	    -20.72937422	     -7.49999987	     31.03145969	     -7.42209939	      0.30522405	     75.37989931	      1.31562743	     34.43548410	     -3.37096033	     -7.49999987	    -32.72189896	      1.81273580	      0.83714836	      9.53142953	     -3.91260248	    -11.33101676	     24.76132212	     78.48792050	     13.58720469	    -14.57045592	     22.27250635	     28.54699823	     76.55491716
